:version 1.10
:name ASF
:units
  mass 1
  length 1
  angle deg
:documentation
  ASF file generated by Kaydara
:root
  axis xyz
  order  tx ty tz rx ry rz
  position 0 0 0
  orientation 0 0 0
:bonedata
  begin
    id 1
    name lfemurDummy
    direction 0.61522 -0.761478 0.204097
    length 5.68318
    axis 0 -0 0 xyz
  end
  begin
    id 2
    name lfemur
    direction 0.34202 -0.939693 -5.84747e-008
    length 16.9147
    axis 0 -0 20 xyz
    dof rx ry rz
    limits( -inf , inf )
( -inf , inf )
( -inf , inf )

  end
  begin
    id 3
    name ltibia
    direction 0.34202 -0.939693 1.20839e-009
    length 18.0532
    axis 0 -0 20 xyz
    dof rz ry rx
    limits( -inf , inf )
( -inf , inf )
( -inf , inf )

  end
  begin
    id 4
    name lfoot
    direction 0.0841971 -0.23133 0.969225
    length 5.23822
    axis -90 7.62852e-016 20 xyz
    dof ry rx rz
    limits( -inf , inf )
( -inf , inf )
( -inf , inf )

  end
  begin
    id 5
    name ltoes
    direction 0 0 0
    length 0
    axis 0 0 0 xyz
    dof rz ry rx
    limits( -inf , inf )
( -inf , inf )
( -inf , inf )

  end
  begin
    id 6
    name rfemurDummy
    direction -0.625247 -0.75382 0.202044
    length 5.74091
    axis 0 -0 0 xyz
  end
  begin
    id 7
    name rfemur
    direction -0.34202 -0.939693 -1.47013e-008
    length 16.4922
    axis 0 -0 -20 xyz
    dof rx ry rz
    limits( -inf , inf )
( -inf , inf )
( -inf , inf )

  end
  begin
    id 8
    name rtibia
    direction -0.34202 -0.939693 -7.74345e-010
    length 18.2421
    axis 0 -0 -20 xyz
    dof rz ry rx
    limits( -inf , inf )
( -inf , inf )
( -inf , inf )

  end
  begin
    id 9
    name rfoot
    direction -0.124331 -0.341598 0.931586
    length 5.45787
    axis -90 -7.62852e-016 -20 xyz
    dof ry rx rz
    limits( -inf , inf )
( -inf , inf )
( -inf , inf )

  end
  begin
    id 10
    name rtoes
    direction 0 0 0
    length 0
    axis 0 0 0 xyz
    dof rz ry rx
    limits( -inf , inf )
( -inf , inf )
( -inf , inf )

  end
  begin
    id 11
    name lowerbackDummy
    direction 0 0 0
    length 0
    axis 0 -0 0 xyz
  end
  begin
    id 12
    name lowerback
    direction -0.0218484 0.994884 -0.0986304
    length 4.45607
    axis 0 -0 0 xyz
    dof rx ry rz
    limits( -inf , inf )
( -inf , inf )
( -inf , inf )

  end
  begin
    id 13
    name upperback
    direction -0.00973057 0.999717 -0.0217111
    length 4.47449
    axis 0 -0 0 xyz
    dof rx ry rz
    limits( -inf , inf )
( -inf , inf )
( -inf , inf )

  end
  begin
    id 14
    name thorax
    direction -0.000928171 0.999699 0.0245198
    length 4.50973
    axis 0 -0 0 xyz
    dof rx ry rz
    limits( -inf , inf )
( -inf , inf )
( -inf , inf )

  end
  begin
    id 15
    name rclavicle
    direction -0.9009 0.425937 -0.0834055
    length 7.28587
    axis 0 -0 0 xyz
    dof rx ry rz
    limits( -inf , inf )
( -inf , inf )
( -inf , inf )

  end
  begin
    id 16
    name rhumerus
    direction -1 -2.23604e-007 -1.42637e-007
    length 13.5704
    axis 180 30 90 xyz
    dof rx ry rz
    limits( -inf , inf )
( -inf , inf )
( -inf , inf )

  end
  begin
    id 17
    name rradius
    direction -1 5.68281e-008 -4.4952e-007
    length 8.06782
    axis 180 30 90 xyz
    dof rz ry rx
    limits( -inf , inf )
( -inf , inf )
( -inf , inf )

  end
  begin
    id 18
    name rwrist
    direction -1 1.51393e-007 1.38143e-007
    length 4.03391
    axis -90 -90 0 xyz
    dof rz rx ry
    limits( -inf , inf )
( -inf , inf )
( -inf , inf )

  end
  begin
    id 19
    name rthumb
    direction 0 0 0
    length 0
    axis 0 0 0 xyz
    dof ry rx rz
    limits( -inf , inf )
( -inf , inf )
( -inf , inf )

  end
  begin
    id 20
    name rhand
    direction -1 -3.34077e-007 -5.59631e-007
    length 1.29744
    axis -90 -90 0 xyz
    dof ry rx rz
    limits( -inf , inf )
( -inf , inf )
( -inf , inf )

  end
  begin
    id 21
    name rfingers
    direction 0 0 0
    length 0
    axis 0 0 0 xyz
    dof rz ry rx
    limits( -inf , inf )
( -inf , inf )
( -inf , inf )

  end
  begin
    id 22
    name lclavicle
    direction 0.940017 0.332249 -0.0773232
    length 8.29589
    axis 0 -0 0 xyz
    dof rx ry rz
    limits( -inf , inf )
( -inf , inf )
( -inf , inf )

  end
  begin
    id 23
    name lhumerus
    direction 1 7.41158e-008 -1.44768e-008
    length 12.0042
    axis 180 -30 -90 xyz
    dof rx ry rz
    limits( -inf , inf )
( -inf , inf )
( -inf , inf )

  end
  begin
    id 24
    name lradius
    direction 1 -1.32972e-007 3.10821e-007
    length 8.1902
    axis 180 -30 -90 xyz
    dof rz ry rx
    limits( -inf , inf )
( -inf , inf )
( -inf , inf )

  end
  begin
    id 25
    name lwrist
    direction 1 3.08957e-007 4.01394e-007
    length 4.09509
    axis -90 90 0 xyz
    dof rz rx ry
    limits( -inf , inf )
( -inf , inf )
( -inf , inf )

  end
  begin
    id 26
    name lthumb
    direction 0 0 0
    length 0
    axis 0 0 0 xyz
    dof ry rx rz
    limits( -inf , inf )
( -inf , inf )
( -inf , inf )

  end
  begin
    id 27
    name lhand
    direction 1 -1.64125e-007 -6.99514e-007
    length 1.37229
    axis -90 90 0 xyz
    dof ry rx rz
    limits( -inf , inf )
( -inf , inf )
( -inf , inf )

  end
  begin
    id 28
    name lfingers
    direction 0 0 0
    length 0
    axis 0 0 0 xyz
    dof rz ry rx
    limits( -inf , inf )
( -inf , inf )
( -inf , inf )

  end
  begin
    id 29
    name lowerneck
    direction -0.030798 0.998024 0.0547665
    length 3.93918
    axis 0 -0 0 xyz
    dof rx ry rz
    limits( -inf , inf )
( -inf , inf )
( -inf , inf )

  end
  begin
    id 30
    name upperneck
    direction 0.0531588 0.996611 -0.0627736
    length 3.95491
    axis 0 -0 0 xyz
    dof rx ry rz
    limits( -inf , inf )
( -inf , inf )
( -inf , inf )

  end
  begin
    id 31
    name head
    direction 0 0 0
    length 0
    axis 0 0 0 xyz
    dof rx ry rz
    limits( -inf , inf )
( -inf , inf )
( -inf , inf )

  end
:hierarchy
  begin
    root lfemurDummy rfemurDummy lowerbackDummy
    lfemurDummy lfemur
    lfemur ltibia
    ltibia lfoot
    lfoot ltoes
    rfemurDummy rfemur
    rfemur rtibia
    rtibia rfoot
    rfoot rtoes
    lowerbackDummy lowerback
    lowerback upperback
    upperback thorax
    thorax rclavicle lclavicle lowerneck
    rclavicle rhumerus
    rhumerus rradius
    rradius rwrist
    rwrist rthumb rhand
    rhand rfingers
    lclavicle lhumerus
    lhumerus lradius
    lradius lwrist
    lwrist lthumb lhand
    lhand lfingers
    lowerneck upperneck
    upperneck head
  end

:SAMPLES-PER-SECOND 30
:FULLY-SPECIFIED
:DEGREES
12
root  15.46588958 40.82822124 -4.497733454 5.148986816 -72.30909729 2.096984863
lowerback  16.25519943 1.147580028 -3.356659889
upperback  6.682320118 0.7265650034 0.3034549952
thorax  -2.049690008 0.1853089929 2.092989922
lowerneck  1.213140011 5.586120129 -5.79019022
upperneck  5.946889877 7.319300175 1.745859981
head  1.368989944 3.527559996 1.558670044
lclavicle  0 -9.442270133e-015 7.951389973e-016
lhumerus  20.37129974 -11.52779961 77.90090179
lradius  2.127445726e-031 -2.81830068e-031 127.0479965
lwrist  -7.062250077e-031 1.765562519e-031 5.720099926
lhand  -1.496451383e-031 -27.76390076 20.11240005
lfingers  90 7.125020027 -90
lthumb  89.89689403 5.08795885 91.16245106
rclavicle  0 -9.442270133e-015 7.951389973e-016
rhumerus  31.70759964 20.73579979 -75.3391037
rradius  -2.066508319e-031 2.863282628e-031 125.8190002
rwrist  7.062250077e-031 1.765562519e-031 -5.881979942
rhand  -7.920061211e-032 -33.2840004 9.303460121
rfingers  -90 -7.125020027 -90
rthumb  -92.93752616 -24.25625642 -97.11982154
rfemur  -39.42110062 -0.8577160239 7.000649929
rtibia  -0 0 64.49770355
rfoot  -0 1.628229976 6.731969833
rtoes  5.373923086 19.29304026 -105.8922705
lfemur  -28.69379997 -0.881155014 -7.232429981
ltibia  -0 0 52.07369995
lfoot  4.449975735e-032 -7.299990177 -5.68844986
ltoes  -4.250644065 -19.5611806 -102.515957
13
root  15.50102234 40.7366655 -4.516844487 5.974975586 -72.42630005 0.8800048828
lowerback  16.22200012 1.510720015 -2.456530094
upperback  6.750329971 1.32190001 -0.01071679965
thorax  -1.972460032 0.4944890141 1.149189949
lowerneck  1.166569948 5.051020145 -3.741050005
upperneck  6.243529797 6.611670017 1.538210034
head  1.566210032 3.211009979 1.16000998
lclavicle  0 -9.442270133e-015 7.951389973e-016
lhumerus  21.11170006 -13.21660042 77.80809784
lradius  2.099452371e-031 -2.839215346e-031 126.4810028
lwrist  -7.062250077e-031 -1.765562519e-031 5.669750214
lhand  -1.496451383e-031 -27.76390076 20.11240005
lfingers  90 7.125020027 -90
lthumb  89.89689403 5.08795885 91.16245106
rclavicle  0 -9.442270133e-015 7.951389973e-016
rhumerus  30.70960045 18.73290062 -75.88330078
rradius  -2.059355763e-031 2.868431258e-031 125.6760025
rwrist  3.531125038e-031 -1.765562519e-031 -4.876979828
rhand  -7.920061211e-032 -33.2840004 9.303460121
rfingers  -90 -7.125020027 -90
rthumb  -92.93752616 -24.25625642 -97.11982154
rfemur  -39.28300095 0.6134830117 6.249619961
rtibia  -0 0 63.66889954
rfoot  -4.414211386e-032 0.6736369729 3.465840101
rtoes  5.373923086 19.29304026 -105.8922705
lfemur  -27.60460091 -1.128749967 -6.451489925
ltibia  -0 0 53.917099
lfoot  -0 -7.073979855 -7.04858017
ltoes  -4.250644065 -19.5611806 -102.515957
14
root  15.51611142 40.61800138 -4.513555437 6.218017578 -72.77490234 0.06597900391
lowerback  16.27300072 1.430449963 -2.281899929
upperback  6.795330048 1.247380018 0.2734709978
thorax  -1.951760054 0.4541299939 1.361670017
lowerneck  1.167659998 5.144139767 -4.016799927
upperneck  6.476170063 6.729990005 1.606330037
head  1.626670003 3.260489941 1.233180046
lclavicle  0 -9.442270133e-015 7.951389973e-016
lhumerus  20.81229973 -13.11419964 78.71040344
lradius  2.093501196e-031 -2.843606299e-031 126.3610001
lwrist  -7.062250077e-031 -1.765562519e-031 5.150499821
lhand  -1.496451383e-031 -27.76390076 20.11240005
lfingers  90 7.125020027 -90
lthumb  89.89689403 5.08795885 91.16245106
rclavicle  0 -9.442270133e-015 7.951389973e-016
rhumerus  30.28840065 18.89940071 -75.61260223
rradius  -2.054646929e-031 2.871806058e-031 125.5820007
rwrist  7.062250077e-031 -1.765562519e-031 -4.716479778
rhand  -7.920061211e-032 -33.2840004 9.303460121
rfingers  -90 -7.125020027 -90
rthumb  -92.93752616 -24.25625642 -97.11982154
rfemur  -38.94520187 2.275010109 5.343560219
rtibia  -0 0 62.80590057
rfoot  -4.414003452e-032 -0.3801479936 0.3932099938
rtoes  5.373923086 19.29304026 -105.8922705
lfemur  -25.99419975 -1.489459991 -5.910009861
ltibia  -0 0 55.4620018
lfoot  -0 -6.39729023 -8.309220314
ltoes  -4.250644065 -19.5611806 -102.515957
15
root  15.51879973 40.47088923 -4.502110969 5.536987305 -73.22589874 0.1019897461
lowerback  16.38829994 1.408200026 -2.315439939
upperback  6.815579891 1.211869955 0.4457510114
thorax  -1.993639946 0.4320000112 1.56656003
lowerneck  1.398219943 5.223579884 -4.279369831
upperneck  6.551390171 6.814660072 1.75948
head  1.595260024 3.296339989 1.31893003
lclavicle  0 -9.442270133e-015 7.951389973e-016
lhumerus  20.51930046 -13.23410034 79.08650208
lradius  2.092309782e-031 -2.844483049e-031 126.336998
lwrist  -3.531125038e-031 -0 4.497670174
lhand  -1.496451383e-031 -27.76390076 20.11240005
lfingers  90 7.125020027 -90
lthumb  89.89689403 5.08795885 91.16245106
rclavicle  0 -9.442270133e-015 7.951389973e-016
rhumerus  29.67980003 19.19890022 -75.31210327
rradius  -2.052992691e-031 2.87298887e-031 125.5490036
rwrist  7.062250077e-031 1.765562519e-031 -4.676650047
rhand  -7.920061211e-032 -33.2840004 9.303460121
rfingers  -90 -7.125020027 -90
rthumb  -92.93752616 -24.25625642 -97.11982154
rfemur  -38.49840164 3.931430101 4.208600044
rtibia  -0 0 61.93379974
rfoot  -4.414762315e-032 -1.128319979 -2.382210016
rtoes  5.373923086 19.29304026 -105.8922705
lfemur  -23.98200035 -1.994860053 -5.765439987
ltibia  -0 0 56.51710129
lfoot  -0 -5.618899822 -9.420780182
ltoes  -4.250644065 -19.5611806 -102.515957
16
root  15.5061106 40.30711257 -4.4983999 3.992980957 -73.70149994 1.052001953
lowerback  16.51420021 1.422070026 -2.606539965
upperback  6.77933979 1.180969954 0.4476020038
thorax  -2.101730108 0.4130029976 1.736960053
lowerneck  1.583529949 5.273049831 -4.186460018
upperneck  6.638790131 6.862800121 1.866619945
head  1.589050055 3.321389914 1.332739949
lclavicle  0 -9.442270133e-015 7.951389973e-016
lhumerus  20.19000053 -13.52159977 78.88610077
lradius  2.097321009e-031 -2.840790141e-031 126.4380035
lwrist  -7.062250077e-031 -0 3.764039993
lhand  -1.496451383e-031 -27.76390076 20.11240005
lfingers  90 7.125020027 -90
lthumb  89.89689403 5.08795885 91.16245106
rclavicle  0 -9.442270133e-015 7.951389973e-016
rhumerus  28.94499969 19.59029961 -75.17230225
rradius  -2.055198318e-031 2.871411484e-031 125.5930023
rwrist  1.059337512e-030 -1.765562519e-031 -4.795100212
rhand  -7.920061211e-032 -33.2840004 9.303460121
rfingers  -90 -7.125020027 -90
rthumb  -92.93752616 -24.25625642 -97.11982154
rfemur  -38.07490158 5.545470238 2.887249947
rtibia  -0 0 61.09329987
rfoot  -4.41531768e-032 -1.448740005 -5.054969788
rtoes  5.373923086 19.29304026 -105.8922705
lfemur  -21.67160034 -2.777699947 -5.97453022
ltibia  -0 0 56.88199997
lfoot  -0 -4.474070072 -10.43640041
ltoes  -4.250644065 -19.5611806 -102.515957
17
root  15.47504485 40.11511014 -4.500377835 2.731018066 -74.22000122 1.844970703
lowerback  16.48259926 1.43848002 -2.802809954
upperback  6.707029819 1.170429945 0.3167690039
thorax  -2.161809921 0.4088670015 1.712180018
lowerneck  1.423769951 5.269249916 -3.735460043
upperneck  6.949510098 6.857069969 1.922299981
head  1.728870034 3.325819969 1.288730025
lclavicle  0 -9.442270133e-015 7.951389973e-016
lhumerus  19.90800095 -14.00909996 78.41439819
lradius  2.10989386e-031 -2.831464628e-031 126.6920013
lwrist  -3.531125038e-031 -0 3.325200081
lhand  -1.496451383e-031 -27.76390076 20.11240005
lfingers  90 7.125020027 -90
lthumb  89.89689403 5.08795885 91.16245106
rclavicle  0 -9.442270133e-015 7.951389973e-016
rhumerus  28.13069916 19.98719978 -75.31600189
rradius  -2.062208327e-031 2.866381142e-031 125.7330017
rwrist  1.412450015e-030 -1.765562519e-031 -4.945230007
rhand  -7.920061211e-032 -33.2840004 9.303460121
rfingers  -90 -7.125020027 -90
rthumb  -92.93752616 -24.25625642 -97.11982154
rfemur  -37.84659958 7.140299797 1.681540012
rtibia  -0 0 60.31079865
rfoot  -0 -1.340270042 -7.338009834
rtoes  5.373923086 19.29304026 -105.8922705
lfemur  -19.17370033 -3.787770033 -6.191919804
ltibia  -0 0 56.45479965
lfoot  -0 -3.086649895 -11.44950008
ltoes  -4.250644065 -19.5611806 -102.515957
18
root  15.43277831 39.87933482 -4.498711158 1.163024902 -74.76730347 3.04901123
lowerback  16.23040009 1.475659966 -3.113339901
upperback  6.65692997 1.178930044 0.1716029942
thorax  -2.084690094 0.4113110006 1.736330032
lowerneck  1.156280041 5.240059853 -3.200530052
upperneck  7.279290199 6.82336998 1.893790007
head  1.900879979 3.318279982 1.208819985
lclavicle  0 -9.442270133e-015 7.951389973e-016
lhumerus  19.75379944 -14.38220024 77.98639679
lradius  2.125773106e-031 -2.819562508e-031 127.0139999
lwrist  -7.062250077e-031 -0 3.196089983
lhand  -1.496451383e-031 -27.76390076 20.11240005
lfingers  90 7.125020027 -90
lthumb  89.89689403 5.08795885 91.16245106
rclavicle  0 -9.442270133e-015 7.951389973e-016
rhumerus  27.2791996 20.22410011 -75.52420044
rradius  -2.071352811e-031 2.859779986e-031 125.9160004
rwrist  1.059337512e-030 -0 -4.720970154
rhand  -7.920061211e-032 -33.2840004 9.303460121
rfingers  -90 -7.125020027 -90
rthumb  -92.93752616 -24.25625642 -97.11982154
rfemur  -37.76900101 8.562479973 0.4022800028
rtibia  -0 0 59.61399841
rfoot  -0 -0.704069972 -8.841950417
rtoes  5.373923086 19.29304026 -105.8922705
lfemur  -16.46759987 -5.013390064 -6.697919846
ltibia  -0 0 55.25590134
lfoot  -0 -2.619329929 -12.12440014
ltoes  -4.250644065 -19.5611806 -102.515957
19
root  15.38131143 39.6013335 -4.491711038 -0.9069824219 -75.22329712 4.885986328
lowerback  15.78279972 1.443079948 -3.827470064
upperback  6.55121994 1.058949947 0.2038639933
thorax  -1.963750005 0.3444109857 2.199379921
lowerneck  0.8752300143 5.308440208 -2.897360086
upperneck  7.729249954 6.921249866 1.785269976
head  2.108059883 3.367110014 1.14707005
lclavicle  0 -9.442270133e-015 7.951389973e-016
lhumerus  19.34889984 -14.32040024 77.79029846
lradius  2.147363016e-031 -2.803154672e-031 127.4540024
lwrist  -1.059337512e-030 -0 2.940399885
lhand  -1.496451383e-031 -27.76390076 20.11240005
lfingers  90 7.125020027 -90
lthumb  89.89689403 5.08795885 91.16245106
rclavicle  0 -9.442270133e-015 7.951389973e-016
rhumerus  26.4137001 20.72039986 -75.48639679
rradius  -2.084209373e-031 2.85042371e-031 126.1740036
rwrist  7.062250077e-031 -3.531125038e-031 -4.481770039
rhand  -7.920061211e-032 -33.2840004 9.303460121
rfingers  -90 -7.125020027 -90
rthumb  -92.93752616 -24.25625642 -97.11982154
rfemur  -37.83660126 9.616889954 -0.9471729994
rtibia  -0 0 59.12260056
rfoot  -0 -0.9940490127 -7.607749939
rtoes  5.373923086 19.29304026 -105.8922705
lfemur  -13.64019966 -6.489769936 -7.565539837
ltibia  -0 0 53.43909836
lfoot  -0 -3.688060045 -12.09399986
ltoes  -4.250644065 -19.5611806 -102.515957
20
root  15.32377709 39.26866787 -4.474755535 -2.523986816 -75.71970367 6.338012695
lowerback  15.32489967 1.339949965 -4.085450172
upperback  6.320099831 0.9184280038 0.1540309936
thorax  -1.957980037 0.281870991 2.319920063
lowerneck  0.6707320213 5.398379803 -2.799890041
upperneck  8.172519684 7.03771019 1.811910033
head  2.289710045 3.422399998 1.159729958
lclavicle  0 -9.442270133e-015 7.951389973e-016
lhumerus  18.73740005 -14.39789963 77.54190063
lradius  2.170430744e-031 -2.785332013e-031 127.927002
lwrist  -7.062250077e-031 -3.531125038e-031 2.347310066
lhand  -1.496451383e-031 -27.76390076 20.11240005
lfingers  90 7.125020027 -90
lthumb  89.89689403 5.08795885 91.16245106
rclavicle  0 -9.442270133e-015 7.951389973e-016
rhumerus  25.33790016 21.25429916 -75.56510162
rradius  -2.099699995e-031 2.839032224e-031 126.4860001
rwrist  3.531125038e-031 -0 -4.351620197
rhand  -7.920061211e-032 -33.2840004 9.303460121
rfingers  -90 -7.125020027 -90
rthumb  -92.93752616 -24.25625642 -97.11982154
rfemur  -38.07419968 10.45670033 -2.123080015
rtibia  -0 0 58.88990021
rfoot  -4.41840304e-032 -2.585180044 -6.303390026
rtoes  5.373923086 19.29304026 -105.8922705
lfemur  -10.76889992 -7.858500004 -8.419939995
ltibia  -0 0 51.25030136
lfoot  -0 -8.531209946 -12.94900036
ltoes  -4.250644065 -19.5611806 -102.515957
